<svg width="16" height="16" fill="none" xmlns="http://www.w3.org/2000/svg"><path d="M7 7.4c0-.22.18-.4.4-.4h1.2c.22 0 .4.18.4.4v1.2a.4.4 0 0 1-.4.4H7.4a.4.4 0 0 1-.4-.4V7.4Z" fill="#34374A"/><path fill-rule="evenodd" clip-rule="evenodd" d="M7.4 0a.4.4 0 0 0-.4.4v.604c-.536.008-.954.032-1.332.107a5.8 5.8 0 0 0-4.557 4.557c-.075.378-.1.796-.107 1.332H.4a.4.4 0 0 0-.4.4v1.2c0 .22.18.4.4.4h.604c.008.536.032.954.107 1.332a5.8 5.8 0 0 0 4.557 4.557c.378.075.796.1 1.332.107v.604c0 .22.18.4.4.4h1.2a.4.4 0 0 0 .4-.4v-.604c.536-.008.954-.032 1.332-.107a5.8 5.8 0 0 0 4.557-4.557c.075-.378.1-.796.107-1.332h.604a.4.4 0 0 0 .4-.4V7.4a.4.4 0 0 0-.4-.4h-.604c-.008-.536-.032-.954-.107-1.332a5.8 5.8 0 0 0-4.557-4.557c-.378-.075-.796-.1-1.332-.107V.4a.4.4 0 0 0-.4-.4H7.4ZM9 12.995c.464-.007.722-.024.941-.068a3.8 3.8 0 0 0 2.986-2.986c.044-.22.061-.477.068-.941H11.4a.4.4 0 0 1-.4-.4V7.4c0-.22.18-.4.4-.4h1.595c-.007-.464-.024-.722-.068-.941a3.8 3.8 0 0 0-2.986-2.986c-.22-.044-.477-.061-.941-.068V4.6a.4.4 0 0 1-.4.4H7.4a.4.4 0 0 1-.4-.4V3.005c-.464.007-.722.024-.941.068a3.8 3.8 0 0 0-2.986 2.986c-.044.22-.061.477-.068.941H4.6c.22 0 .4.18.4.4v1.2a.4.4 0 0 1-.4.4H3.005c.007.464.024.722.068.941a3.8 3.8 0 0 0 2.986 2.986c.22.044.477.061.941.068V11.4c0-.22.18-.4.4-.4h1.2c.22 0 .4.18.4.4v1.595Z" fill="#34374A"/></svg>