<svg width="58" height="67" viewBox="0 0 58 67" xmlns="http://www.w3.org/2000/svg">
    <g filter="url(#filter)">
        <path d="M34.342 49.376c-3.076.93-4.687 2.979-4.831 6.147a.5.5 0 0 1-.5.477h-.022a.5.5 0 0 1-.5-.477c-.144-3.168-1.755-5.217-4.831-6.147C13.53 46.968 6 37.863 6 27 6 14.297 16.297 4 29 4s23 10.297 23 23c0 10.863-7.531 19.968-17.658 22.376z" fill="#f00" />
    </g>
    <path d="M29 67a4 4 0 1 1 0-8 4 4 0 0 1 0 8z" fill="#fff" />
    <path fill-rule="evenodd" clip-rule="evenodd" d="M29 65a2 2 0 1 0 0-4 2 2 0 0 0 0 4z" fill="#f00" />
    <defs>
        <filter id="filter" x="0" y="0" width="58" height="64" filterUnits="userSpaceOnUse" color-interpolation-filters="sRGB">
            <feFlood flood-opacity="0" result="BackgroundImageFix" />
            <feColorMatrix in="SourceAlpha" values="0 0 0 0 0 0 0 0 0 0 0 0 0 0 0 0 0 0 127 0" result="hardAlpha" />
            <feOffset dy="2" />
            <feGaussianBlur stdDeviation="3" />
            <feColorMatrix values="0 0 0 0 0.4 0 0 0 0 0.396078 0 0 0 0 0.380392 0 0 0 0.2 0" />
            <feBlend in2="BackgroundImageFix" result="effect1_dropShadow_9595_81428" />
            <feBlend in="SourceGraphic" in2="effect1_dropShadow_9595_81428" result="shape" />
        </filter>
    </defs>
</svg>
