<svg width="16" height="16" fill="none" xmlns="http://www.w3.org/2000/svg"><path d="M7 4.6a.6.6 0 0 1 .6-.6h.8a.6.6 0 0 1 .6.6V7h2.4a.6.6 0 0 1 .6.6v.8a.6.6 0 0 1-.6.6H9v2.4a.6.6 0 0 1-.6.6h-.8a.6.6 0 0 1-.6-.6V9H4.6a.6.6 0 0 1-.6-.6v-.8a.6.6 0 0 1 .6-.6H7V4.6Z" fill="#34374A"/><path fill-rule="evenodd" clip-rule="evenodd" d="M7.8 0C6.133 0 5.053 0 4.147.294A6 6 0 0 0 .294 4.146C-.001 5.052 0 6.13 0 7.8v.4c0 1.669 0 2.748.294 3.654a6 6 0 0 0 3.852 3.852c.906.295 1.985.294 3.654.294h.4c1.669 0 2.748 0 3.654-.294a6 6 0 0 0 3.852-3.852C16.001 10.948 16 9.87 16 8.2v-.4c0-1.669 0-2.748-.294-3.654A6 6 0 0 0 11.854.294C10.948-.001 9.87 0 8.2 0h-.4ZM4.764 2.196C5.329 2.012 6.061 2 8 2c1.94 0 2.672.012 3.236.196a4 4 0 0 1 2.568 2.568C13.988 5.328 14 6.06 14 8c0 1.94-.012 2.671-.196 3.236a4 4 0 0 1-2.568 2.568C10.672 13.988 9.94 14 8 14c-1.939 0-2.671-.012-3.236-.196a4 4 0 0 1-2.568-2.568C2.012 10.671 2 9.94 2 8c0-1.94.012-2.671.196-3.236a4 4 0 0 1 2.568-2.568Z" fill="#34374A"/></svg>